<svg width="210mm" height="65mm" viewBox="0 0 109.172 33.791"
  xmlns="http://www.w3.org/2000/svg">
  <path
    d="M12.747 3.352L7.731 6.183 4.8 9.014l-2.388.463s.931 1.042 3.64.159c2.683-.876 4.197-4.474 7.123-4.154 2.812.307 2.28 3.045 2.28 3.045l3.848-4.379zM11.893 10.93s-.892.262-1.403 1.648c-.396 1.077-.137 2.122-.023 2.532.11.41.394.968.412 1.19.019.223-.637.66-.606 1.072.019.244.469.603 1.024.67 1.08.13 1.323-.149 1.323-.149l1.453-5zM12.422 19.637s-1.87-1.08-3.789-.968c-1.918.11-2.458 1.005-2.683 1.77-.148.508-.492 1.383-.764 1.825-.252.41-.784.76-1.117.834-.479.106-1.072.307-.881 1.042.156.603.595.982 1.135 1.336.532.347 1.159.747 1.159.747l6.871-4.554zM18.986 23.082l-1.564 2.066s.614 1.23 2.141 1.583c1.527.354 2.318.447 2.524.939.278.672-.037 1.563-.148 1.751-.111.186-.693.794-.27 1.212.513.503 1.9.204 2.384.037.484-.167 1.093-.294 1.307-1 .146-.484.44-2.228.397-3.31-.048-1.257-.28-2.095-.67-2.45-.391-.354-2.952-.828-2.952-.828s.442-1.027.95-2.365c.25-.662.4-1.368.52-1.416.194-.074.514.447.588.65.074.205.037 2.242.315 2.546.236.26 1.013.429 1.725-.047.625-.418 1.283-1.194 1.249-1.993-.048-1.034-.998-1.788-1.035-2.198-.037-.41.149-1.445 0-2.244-.148-.802-3.976-3.175-3.976-3.175z"
    fill="#5a6415" />
  <path fill="#f26a35"
    d="M12.096 26.656L3.267 29.04l-1.19.28.037 1.21 2.254 1.49 5.215-1.546 3.334-1.786-.932-2.161" />
  <path
    d="M2.431 30.866s.074-1.098.558-1.005c.395.076.577 1.378.577 1.378l.67.558.67-.632s.335-1.304.727-1.342c.447-.042.746 1.173.746 1.173l-2.14 1.172zM7.72 28.072s.463.92 1.006.876c.65-.056.764-1.638.764-1.638z"
    fill="#fffdfd" />
  <path
    d="M6.564 24.18c-.085.51-1.138 1.146-1.577 1.434-.545.36-1.18.839-1.59.857-.41.019-1.019.061-1.6.1-.56.038-.956.157-1.218.697-.193.4-.235 1.328.212 1.775.447.447 1.434.839 2.757.67 1.323-.167 1.733-.392 2.161-.577.429-.186 2.421-.987 3.353-1.23.931-.244 2.683-.747 2.979-.485.299.262-.894 1.061-1.826 1.416-.931.354-3.696 1.936-4.791 2.235-.78.212-2.44.096-2.845-.28-.307-.283-.41-.479-.418-.736-.01-.256-.293-.349-.55-.084-.318.325.03 1.19.67 1.714.637.516 1.711.818 3.301.707 2.162-.149 4.141-1.546 4.607-1.564.465-.019 1.984.225 3.426-.347 1.482-.587 2.21-1.701 2.21-1.701s1.29-.622 2.11-1.18c.821-.558 1.342-.945 1.342-.945s-.72-.423-.738-1.452c-.01-.614.204-1.453.746-1.36.54.093-.391 1.452.614 1.937 1.005.484 2.738 1.024 3.67.484.931-.54 1.892-1.934 1.577-2.4-.318-.466-1.067-.638-1.789-.783-.677-.135-1.54-.188-1.54-.188s.913-2.291 1.024-3.574a7.6 7.6 0 00-.055-1.845c-.112-.688-.289-1.542-.28-2.18.01-.688.073-1.638.428-1.563.354.074.193 1.042.262 1.955.074 1.024.52 2.476 1.677 2.402 1.154-.074 1.77-.876 1.6-2.402-.166-1.527-.343-2.495-.978-3.278-.632-.784-1.33-.94-1.33-.94s-.094-2.894-.95-4.683c-.94-1.966-3.046-4.638-6.285-5.57-3.238-.93-5.638-.028-7.31.988C7.32 3.6 6.315 7.389 4.9 8.08c-1.416.69-2.561.661-2.58 1.053-.018.392.13.521 1.043.503.912-.019 1.849-.167 3.053-1.024 1.423-1.016 3.37-3.37 4.842-3.91 1.47-.54 3.053-.374 3.8.428.745.802.967 1.701.79 2.42-.293 1.197-1.164 1.956-1.164 1.956s-2.775.746-3.574 1.974c-.8 1.228-.57 1.778.037 2.273.97.79 2.272.391 2.272.391s-.643 2.366-.79 3.09c-.149.728-.625 3.112-.773 3.483-.149.373-.336 1.19-.84 1.172-.502-.019-1.396-.95-2.923-.355-1.383.54-1.415 1.977-1.529 2.646z"
    fill="#70853c" />
  <path
    d="M11.062 27.178c-.569.158-.606 1.555-.606 1.555s.347-.135.717-.344a2.36 2.36 0 00.527-.378s-.286-.931-.638-.833z"
    fill="#fffdfd" />
  <path
    d="M23.003 29.752c-.392-.029-.559.347-.646.73-.048.204-.066.4-.066.4s.222.047.484.029c.262-.019.503-.056.503-.056s.267-1.063-.275-1.103zM23.627 30.781s-.056-.452.14-.823c.196-.373.736-.37.765.14.013.257-.019.424-.019.424s-.185.093-.367.146c-.215.058-.519.113-.519.113z"
    fill="#70853c" />
  <path
    d="M25.17 21.685c-.456.003-.482.94-.482.94s.161.131.452.14c.26.007.466-.048.466-.048s.069-1.035-.437-1.032zM26 22.582s-.431-1.037.133-1.18c.386-.098.52.704.52.704s-.12.153-.28.262c-.169.113-.373.214-.373.214z"
    fill="#71873b" />
  <path
    d="M10.411 17.642s.36-.852.722-.667c.381.196-.103 1.011-.103 1.011s-.204-.066-.373-.159a1.477 1.477 0 01-.246-.185zM11.853 17.206c.4.018.262.862.262.862s-.172.019-.355.013c-.169-.005-.367-.024-.367-.024s.105-.867.46-.851zM3.156 23.91s.96-.251 1.154.177c.196.429-.786.717-.786.717s-.201-.254-.265-.428c-.135-.36-.103-.466-.103-.466zM3.847 25.124c-.01-.029.595-.605.939-.354s-.214.857-.214.857-.233-.127-.381-.233c-.18-.127-.344-.27-.344-.27z"
    fill="#70853c" />
  <path
    d="M13.628 24.881c.037.434-.087.945-.746 1.106-.598.148-1.204-.235-1.217-.881a1.025 1.025 0 011.006-1.069c.531 0 .912.312.957.844zM4.41 28.215c-.024.31-.29.394-.484.373a.438.438 0 01-.376-.553.424.424 0 01.532-.294c.21.064.35.21.328.474zM2.257 27.614c.11.249-.101.495-.262.558-.217.088-.506-.01-.577-.267a.424.424 0 01.296-.529c.214-.055.434-.005.543.238z"
    fill="#2e2c33" />
  <path
    d="M13.022 20.2c-.18.599.022.966.109 1.16.175.383.45.37.675.195.222-.174-.1-.793.013-1.08.161-.41.733-.423.682-.917-.037-.37-.531-.45-.88-.149-.257.215-.48.387-.599.792zM14.21 16.536a1.73 1.73 0 00-.018 1.305c.122.298.68.391.735-.104.038-.333-.121-.55.03-.931.145-.373.447-.28.727-.532.148-.135.167-.632-.38-.624-.292.005-.797.15-1.094.886zM18.838 17.93c-.111.57-.019.932.093 1.128.11.195.576.333.706-.093.074-.243-.103-.437.03-.94.065-.256.243-.38.41-.558.261-.28-.088-.73-.514-.558-.296.12-.587.328-.725 1.021zM17.153 21.434c-.233.418-.19.889-.149 1.164.085.569.651.558.717.233.067-.326-.01-.728.104-.998.113-.27.465-.333.688-.447.306-.159.222-.81-.355-.688-.577.122-.82.402-1.005.736zM19.891 13.694c-.14.474-.1.797-.066.969.085.4.643.418.698.066.056-.355.037-.55.104-.773.108-.367.2-.43.362-.605.288-.307-.066-.792-.503-.532-.251.15-.49.516-.595.875zM15.372 12.348c-.24.465-.183.968-.146 1.214.04.244.164.471.434.45.27-.019.368-.225.339-.45-.016-.116-.077-.5.048-.764.124-.265.373-.424.569-.5.484-.186.198-.884-.358-.696-.404.14-.693.373-.886.746zM17.163 8.723c-.349.376-.368.83-.344 1.154.048.642.643.54.717.177.05-.244.103-.577.178-.746.148-.336.4-.54.203-.746-.177-.183-.521-.09-.754.161zM20.497 9.583c-.032.558.06.786.201 1.042.201.368.717.275.746-.158.021-.315-.127-.241-.095-.852.021-.387.23-.757-.053-.895-.28-.137-.746-.063-.799.863zM19.63 5.286c.158.27.362.503.436.876.103.513.775.391.783-.074.01-.625-.185-.903-.41-1.183-.217-.27-.57-.28-.717-.177-.148.103-.228.328-.093.558zM17.07 5.514a.465.465 0 00-.06.64c.222.275.346.5.333.73-.021.368.31.503.521.35.283-.207.381-.593.111-1.2-.254-.565-.711-.687-.904-.52zM16.343 2.262c-.082.26.193.354.468.402.275.048.593.254.686.458.13.285.537.442.624-.006.077-.383-.413-.78-.714-.955-.246-.145-.921-.349-1.064.1zM15.737 3.397c-.418-.236-1.143-.214-1.23.185-.093.437.307.423.484.437.233.018.455.084.595.251.14.167.244.355.532.27.288-.082.347-.736-.38-1.143zM14.303 2.018c.122-.153.085-.605-.735-.643-.686-.031-.863.297-.755.503.14.27.482.082.765.111.344.037.577.215.725.03zM12.58 2.828c-.473-.056-1 .23-.894.643.085.325.474-.026.783-.019.374.011.702.239.81.019.159-.318-.048-.566-.698-.643zM10.898 2.27c-.008.317-.304.225-.67.362-.222.085-.43.484-.64.31-.28-.236-.024-.611.397-.828.304-.162.923-.18.913.156zM9.615 3.677c-.622.305-.784 1.061-.474 1.196.376.164.368-.397.69-.603.257-.161.855-.077.85-.442-.005-.365-.69-.333-1.066-.15zM8.456 5.723c.069-.241-.41-.57-.98-.186-.568.384-.608.945-.243 1.024.262.056.28-.341.503-.513.318-.24.627.003.72-.325z"
    fill="#97a927" /><text
    style="-inkscape-font-specification:'Public Sans, @wght=600';font-variant-ligatures:normal;font-variant-caps:normal;font-variant-numeric:normal;font-variant-east-asian:normal;font-variation-settings:'wght' 600"
    x="56.112" y="41.08" transform="matrix(.98946 0 0 1.01065 -21.275 -15.956)"
    font-weight="400" font-size="28.971"
    font-family="system-ui, -apple-system, BlinkMacSystemFont, sans-serif"
    fill="#606c37" stroke-width="2.414">
    <tspan
      style="-inkscape-font-specification:'Public Sans, @wght=600';font-variant-ligatures:normal;font-variant-caps:normal;font-variant-numeric:normal;font-variant-east-asian:normal;font-variation-settings:'wght' 600"
      x="56.112" y="41.08">crocc</tspan>
  </text>
</svg>